# xmcd
#
# Track frame offsets:
#	150
#	21265
#	35559
#	44625
#	58356
#	73744
#	85166
#	102827
#	117675
#	136607
#	151152
#	166546
#	181291
#	196197
#	211399
#	226718
#	241607
#	255335
#	273649
#	287225
#	298761
#	313745
#	325642
#	335422
#
# Disc length: 4693 seconds
#
# Revision: 1
# Processed by: cddbd v1.5.2PL0 Copyright (c) Steve Scherf et al.
# Submitted via: audiograbber 1.83.01
#
DISCID=59125318
DTITLE=Western Heart - Western Heart 078
DYEAR=2007
DGENRE=Country
TTITLE0=The Breeze  - Shady Creek Outlaws
TTITLE1=Dreams  - Cheryl K Warner
TTITLE2=Custer´s Last Stand  - Hal Willis
TTITLE3=Cruise Control  - Jose Daniel
TTITLE4=Only Lonely  - Joni Compretta
TTITLE5=Six Pack To Go  - David Cline
TTITLE6=Somewhere North Of Texas  - Tim Chesney
TTITLE7=He´ll Have To Go  - Jim Marlboro
TTITLE8=Calloused Hands  - Gabe Lopez
TTITLE9=When These Days Are Through  - Bengt Pedersen
TTITLE10=She´s A Simole Tennesse Gal  - Dough Jones
TTITLE11=Play Me Some Memories  - Richard Draime
TTITLE12=The Son I Used To Be  - Bubba Brown
TTITLE13=Play Guitar Play  - Jim Russ
TTITLE14=The Battle Of Little Jimmy Dempsey  - Barry Wood
TTITLE15=Diden´t Ya  - Ervin Allen
TTITLE16=Senorita Bye Bye  - Vance Greek
TTITLE17=My Heartache Hall Of Fame  - Mike Anderson
TTITLE18=Pachanga Girl  - Gabe Lopez
TTITLE19=I´m So Lonesome I Could Cry  - Jimmy Eaves
TTITLE20=This Country - Robert Martin
TTITLE21=Guide To My Heart  - Judy Weldon
TTITLE22=The Stone Rolled Away  - Irma Young
TTITLE23=His Lovew Is There  - Angie Heart
EXTD=
EXTT0=
EXTT1=
EXTT2=
EXTT3=
EXTT4=
EXTT5=
EXTT6=
EXTT7=
EXTT8=
EXTT9=
EXTT10=
EXTT11=
EXTT12=
EXTT13=
EXTT14=
EXTT15=
EXTT16=
EXTT17=
EXTT18=
EXTT19=
EXTT20=
EXTT21=
EXTT22=
EXTT23=
PLAYORDER=
